<svg width="205" height="47" viewBox="0 0 205 47" fill="none" xmlns="http://www.w3.org/2000/svg">
<path d="M34.1224 17.2104C32.9867 18.3456 32.4191 19.9246 32.5741 21.5178L32.5474 21.4913C32.7067 23.3661 32.026 25.2154 30.6868 26.5458C29.3476 27.8762 27.4862 28.5525 25.599 28.3942L25.6257 28.4207C23.3407 28.2094 21.1678 29.4442 20.1926 31.5079C19.2175 33.5717 19.6496 36.0213 21.273 37.6326C22.8965 39.2439 25.3626 39.671 27.439 38.7004C29.5155 37.7298 30.7564 35.5699 30.5417 33.3001L30.5698 33.3266C30.4105 31.4518 31.0912 29.6025 32.4304 28.2721C33.7696 26.9417 35.631 26.2654 37.5182 26.4236L37.4901 26.3972C40.0013 26.6215 42.338 25.1004 43.1334 22.7234C43.9288 20.3464 42.9739 17.7382 40.8273 16.4242C38.6807 15.1102 35.9063 15.4358 34.1269 17.2104H34.1224Z" fill="#5454D4"/>
<g filter="url(#filter0_d_1_90)">
<path d="M23.2025 24.953L23.1744 24.9265C24.779 25.0872 26.3715 24.5234 27.5124 23.3909C28.6532 22.2584 29.2219 20.6767 29.0614 19.0824L29.0895 19.1089C28.9302 17.2341 29.611 15.3848 30.9501 14.0544C32.2893 12.724 34.1508 12.0477 36.0379 12.206L36.0098 12.1795C38.2949 12.3927 40.4692 11.1593 41.4458 9.09582C42.4224 7.03236 41.9916 4.58206 40.3687 2.96974C38.7457 1.35741 36.2793 0.92938 34.2022 1.8996C32.1252 2.86982 30.8837 5.02989 31.0983 7.30007L31.0716 7.27213C31.2315 9.14709 30.5509 10.9967 29.2116 12.3272C27.8723 13.6578 26.0105 14.3339 24.1232 14.1751L24.1499 14.203C22.5452 14.0424 20.9527 14.6061 19.8118 15.7387C18.671 16.8712 18.1023 18.4528 18.2628 20.0471L18.2362 20.0207C18.395 21.8954 17.7141 23.7443 16.375 25.0746C15.0359 26.4049 13.1748 27.0813 11.2878 26.9236L11.3144 26.9501C9.02929 26.7369 6.855 27.9703 5.87839 30.0337C4.90178 32.0972 5.33263 34.5475 6.95557 36.1598C8.57852 37.7721 11.0449 38.2002 13.122 37.23C15.199 36.2597 16.4406 34.0997 16.226 31.8295L16.2541 31.856C16.0948 29.9811 16.7755 28.1319 18.1147 26.8014C19.4539 25.471 21.3153 24.7948 23.2025 24.953V24.953Z" fill="#FF7143"/>
<path d="M23.2025 24.953L23.1744 24.9265C24.779 25.0872 26.3715 24.5234 27.5124 23.3909C28.6532 22.2584 29.2219 20.6767 29.0614 19.0824L29.0895 19.1089C28.9302 17.2341 29.611 15.3848 30.9501 14.0544C32.2893 12.724 34.1508 12.0477 36.0379 12.206L36.0098 12.1795C38.2949 12.3927 40.4692 11.1593 41.4458 9.09582C42.4224 7.03236 41.9916 4.58206 40.3687 2.96974C38.7457 1.35741 36.2793 0.92938 34.2022 1.8996C32.1252 2.86982 30.8837 5.02989 31.0983 7.30007L31.0716 7.27213C31.2315 9.14709 30.5509 10.9967 29.2116 12.3272C27.8723 13.6578 26.0105 14.3339 24.1232 14.1751L24.1499 14.203C22.5452 14.0424 20.9527 14.6061 19.8118 15.7387C18.671 16.8712 18.1023 18.4528 18.2628 20.0471L18.2362 20.0207C18.395 21.8954 17.7141 23.7443 16.375 25.0746C15.0359 26.4049 13.1748 27.0813 11.2878 26.9236L11.3144 26.9501C9.02929 26.7369 6.855 27.9703 5.87839 30.0337C4.90178 32.0972 5.33263 34.5475 6.95557 36.1598C8.57852 37.7721 11.0449 38.2002 13.122 37.23C15.199 36.2597 16.4406 34.0997 16.226 31.8295L16.2541 31.856C16.0948 29.9811 16.7755 28.1319 18.1147 26.8014C19.4539 25.471 21.3153 24.7948 23.2025 24.953V24.953Z" stroke="black"/>
</g>
<path d="M13.2817 22.0016C14.4177 20.8665 14.9848 19.2873 14.8286 17.6942L14.8567 17.7207C14.6973 15.8453 15.3784 13.9955 16.7183 12.665C18.0581 11.3344 19.9204 10.6586 21.8081 10.8178L21.78 10.7913C24.0643 11.0039 26.2375 9.7706 27.2135 7.7078C28.1896 5.64499 27.7587 3.19566 26.1364 1.58393C24.514 -0.0277992 22.0486 -0.455804 19.9722 0.513824C17.8958 1.48345 16.6544 3.64248 16.8684 5.91187L16.8418 5.8854C17.0011 7.76024 16.3203 9.60949 14.9812 10.9399C13.642 12.2703 11.7805 12.9466 9.89336 12.7883L9.92001 12.8148C7.40888 12.5911 5.07266 14.1127 4.27773 16.4896C3.4828 18.8666 4.43797 21.4746 6.58459 22.7882C8.73121 24.1019 11.5054 23.7762 13.2847 22.0016H13.2817Z" fill="#5454D4"/>
<path d="M59.1361 7.33398H63.5325V28.5884H59.1361V7.33398Z" fill="#19191B"/>
<path fill-rule="evenodd" clip-rule="evenodd" d="M70.7954 14.1596C67.8941 15.3636 66.0098 18.1867 66.0223 21.3104C66.0071 23.3586 66.8215 25.3269 68.2823 26.7724C69.7432 28.2178 71.7277 29.019 73.7893 28.9957C76.9336 28.9957 79.7677 27.1123 80.968 24.2252C82.1683 21.3381 81.4981 18.0168 79.2703 15.8124C77.0425 13.6081 73.6967 12.9555 70.7954 14.1596ZM73.7269 18.0536C75.5768 18.0196 77.1087 19.4729 77.1599 21.3103C77.2098 22.2212 76.874 23.1114 76.2338 23.7653C75.5936 24.4192 74.7072 24.7773 73.7893 24.753C71.9391 24.7531 70.4343 23.2721 70.4172 21.434C70.4001 19.596 71.877 18.0875 73.7269 18.0536Z" fill="#19191B"/>
<path fill-rule="evenodd" clip-rule="evenodd" d="M99.0783 27.8545V14.031L94.7988 14.0281V15.5133C93.7549 14.2443 92.1672 13.5421 90.5194 13.6207C86.4997 13.7466 83.3069 17.0203 83.3069 21.0156C83.3069 25.0109 86.4997 28.2845 90.5194 28.4104C92.1672 28.489 93.7549 27.7868 94.7988 26.5178V27.8486C94.8724 28.7267 94.5403 29.5905 93.8963 30.1963C93.2522 30.8021 92.366 31.0843 91.4875 30.9633C90.0978 31.1043 88.7661 30.3733 88.1465 29.1295L84.3955 31.2839C85.863 33.6593 88.5432 35.0214 91.3409 34.8133C95.2385 34.8133 99.0783 32.7457 99.0783 27.8545ZM92.7112 17.6533C94.0338 18.2458 94.8608 19.5777 94.8003 21.0177C94.8277 21.9476 94.458 22.8456 93.7826 23.4899C93.1073 24.1342 92.1892 24.4649 91.2551 24.4001C89.8043 24.4018 88.4982 23.527 87.9557 22.1903C87.4133 20.8535 87.7436 19.3234 88.79 18.325C89.8364 17.3267 91.3887 17.0608 92.7112 17.6533Z" fill="#19191B"/>
<path fill-rule="evenodd" clip-rule="evenodd" d="M106.341 14.1596C103.44 15.3636 101.556 18.1867 101.568 21.3104C101.553 23.3586 102.367 25.3269 103.828 26.7724C105.289 28.2178 107.273 29.019 109.335 28.9957C112.479 28.9957 115.313 27.1123 116.514 24.2252C117.714 21.3381 117.044 18.0168 114.816 15.8124C112.588 13.6081 109.243 12.9555 106.341 14.1596ZM109.273 18.0536C111.123 18.0196 112.654 19.4729 112.706 21.3103C112.756 22.2212 112.42 23.1114 111.78 23.7653C111.139 24.4192 110.253 24.7773 109.335 24.753C107.485 24.7531 105.98 23.2721 105.963 21.434C105.946 19.596 107.423 18.0875 109.273 18.0536Z" fill="#19191B"/>
<path fill-rule="evenodd" clip-rule="evenodd" d="M120.781 7.70847C119.795 8.11409 119.152 9.06965 119.152 10.1296C119.167 11.5709 120.339 12.7358 121.79 12.7502C122.857 12.7502 123.819 12.1117 124.227 11.1324C124.635 10.1532 124.41 9.02602 123.655 8.27654C122.901 7.52706 121.766 7.30285 120.781 7.70847ZM123.994 14.031H119.596L119.59 28.5898H123.994V14.031Z" fill="#19191B"/>
<path fill-rule="evenodd" clip-rule="evenodd" d="M141.084 26.6C142.398 25.1575 143.08 23.2537 142.977 21.3104C143.081 19.3667 142.399 17.4623 141.085 16.0193C139.77 14.5764 137.93 13.7141 135.973 13.6236C134.323 13.5342 132.72 14.1859 131.607 15.3986V14.031H127.211V34.4118H131.607V27.2192C132.72 28.4328 134.323 29.0851 135.973 28.9957C137.929 28.9048 139.769 28.0426 141.084 26.6ZM135.036 17.9329C136.951 17.901 138.533 19.4087 138.581 21.3103C138.647 22.2554 138.304 23.1836 137.639 23.8619C136.973 24.5401 136.047 24.9039 135.095 24.8618C133.18 24.862 131.623 23.3285 131.607 21.4263C131.591 19.5241 133.122 17.9647 135.036 17.9329Z" fill="#19191B"/>
<path d="M156.544 24.2207C156.544 27.5693 153.614 28.9957 150.45 28.9957C147.833 29.2312 145.337 27.8585 144.148 25.531L147.957 23.3766C148.274 24.4602 149.311 25.176 150.444 25.0943C151.498 25.0943 152.026 24.7737 152.026 24.1928C152.026 22.5899 144.816 23.4354 144.816 18.3987C144.816 15.2237 147.513 13.6237 150.561 13.6237C152.894 13.5503 155.083 14.7436 156.275 16.7384L152.524 18.7472C152.187 17.9676 151.414 17.4633 150.561 17.4663C149.798 17.4663 149.329 17.7604 149.329 18.281C149.335 19.9413 156.544 18.834 156.544 24.2207Z" fill="#19191B"/>
<path d="M172.603 14.031V28.5898H168.207V27.2207C167.178 28.4462 165.62 29.1069 164.018 28.9972C161.057 28.9972 158.541 26.9016 158.541 22.9678V14.031H162.937V22.3281C162.863 23.0299 163.103 23.7287 163.594 24.2386C164.085 24.7485 164.777 25.0179 165.486 24.9751C167.098 24.9751 168.211 24.0442 168.211 21.9766V14.0354L172.603 14.031Z" fill="#19191B"/>
<path d="M197.812 19.6501V28.5883H193.416V20.0281C193.416 18.5722 192.713 17.6413 191.307 17.6413C189.841 17.6413 189.02 18.6604 189.02 20.3781V28.5883H184.625V20.0281C184.625 18.5722 183.922 17.6413 182.514 17.6413C181.048 17.6413 180.228 18.6604 180.228 20.3781V28.5883H175.832V14.0295H180.228V15.3678C181.154 14.1614 182.633 13.5041 184.155 13.6222C185.686 13.5478 187.143 14.277 187.994 15.5428C188.984 14.2195 190.589 13.4942 192.244 13.6222C195.608 13.6236 197.812 16.0104 197.812 19.6501Z" fill="#19191B"/>
<path d="M201.531 13.9413C203.333 13.9413 204.793 12.4902 204.793 10.7002C204.793 8.91011 203.333 7.45898 201.531 7.45898C199.729 7.45898 198.268 8.91011 198.268 10.7002C198.268 12.4902 199.729 13.9413 201.531 13.9413Z" fill="#19191B"/>
<defs>
<filter id="filter0_d_1_90" x="0.860779" y="0.885376" width="45.6027" height="45.3588" filterUnits="userSpaceOnUse" color-interpolation-filters="sRGB">
<feFlood flood-opacity="0" result="BackgroundImageFix"/>
<feColorMatrix in="SourceAlpha" type="matrix" values="0 0 0 0 0 0 0 0 0 0 0 0 0 0 0 0 0 0 127 0" result="hardAlpha"/>
<feOffset dy="4"/>
<feGaussianBlur stdDeviation="2"/>
<feComposite in2="hardAlpha" operator="out"/>
<feColorMatrix type="matrix" values="0 0 0 0 0 0 0 0 0 0 0 0 0 0 0 0 0 0 0.25 0"/>
<feBlend mode="normal" in2="BackgroundImageFix" result="effect1_dropShadow_1_90"/>
<feBlend mode="normal" in="SourceGraphic" in2="effect1_dropShadow_1_90" result="shape"/>
</filter>
</defs>
</svg>
